# xmcd CD database file
#
# Track frame offsets:
#	150
#	3290
#	61007
#	93475
#	101490
#	141942
#	164317
#	202467
#	223382
#	240887
#
# Disc length: 3495 seconds
#
# Revision: 0
# Processed by: cddbd v1.5.1PL0 Copyright (c) Steve Scherf et al.
# Submitted via: CDex 1.51
#
DISCID=890da50a
DTITLE=Binder Károly - Live At Ccollegium Budapest
DYEAR=1996
DGENRE=Jazz
TTITLE0=General Atmosphere
TTITLE1=Fable - Mese (Binder)
TTITLE2=Little Song - Dalocska (Binder)
TTITLE3=Dancemelodie - Táncdallam (Binder)
TTITLE4=Exciled Rainbow - Számûzött Szivárvány (Binder)
TTITLE5=Take The "A" Train (Billy Strayhorn)
TTITLE6=Body and Soul (John Green - Edward Heyman)
TTITLE7=Green Dolphin Street (Ned Washington)
TTITLE8=Bye Bye Blackbird (Ray Henderson)
TTITLE9=Blues For Rose (unknown)
EXTD=YEAR: 1996
EXTT0=
EXTT1=
EXTT2=
EXTT3=
EXTT4=
EXTT5=
EXTT6=
EXTT7=
EXTT8=
EXTT9=
PLAYORDER=
